<svg xmlns="http://www.w3.org/2000/svg" height="48" viewBox="0 -960 960 960" width="48"><path d="M320-320.5h33.5l242.5-243-33-32.5-243 243v32.5Zm299-266 24.5-23.5q4.5-5.182 5-13.091.5-7.909-5-14.409l-6-6q-6.318-4.5-13.909-5-7.591-.5-13.591 5l-26 26 35 31ZM480.238-132q-72.145 0-135.368-27.523t-110.62-74.848q-47.398-47.325-74.824-110.326Q132-407.699 132-479.762q0-72.145 27.523-135.868t74.848-110.87q47.325-47.148 110.326-74.324Q407.699-828 479.762-828q72.145 0 135.868 27.273t110.87 74.348q47.148 47.075 74.324 110.576Q828-552.301 828-480.238q0 72.145-27.273 135.368t-74.348 110.62q-47.075 47.398-110.576 74.824Q552.301-132 480.238-132Z"/></svg>