<svg xmlns="http://www.w3.org/2000/svg" height="48" viewBox="0 -960 960 960" width="48"><path d="M480-228.5q12 0 22-5.229t16-16.771h-76q6 11.5 16 16.75t22 5.25Zm-93-91h186q5.283 0 8.392-2.855 3.108-2.854 3.108-7.75 0-4.895-3.108-8.145-3.109-3.25-8.392-3.25H387q-4.85 0-7.675 3.052-2.825 3.053-2.825 8.25 0 5.198 2.825 7.948T387-319.5Zm-21.001-85h227.719q32.214-24.212 51.498-61.907 19.284-37.696 19.284-81.657 0-76.296-53.923-130.366-53.924-54.07-130.43-54.07-76.507 0-130.077 54.025Q296.5-624.451 296.5-547.8q0 44.019 18.958 81.536 18.959 37.518 50.541 61.764Zm9.361-22q-26.744-25.303-41.802-56.651Q318.5-514.5 318.5-548.089q0-67.213 47.246-114.812Q412.993-710.5 480.061-710.5t114.753 47.599Q642.5-615.302 642.5-548.089q0 33.589-15.424 64.758-15.425 31.169-41.716 56.831h-210ZM480.302-132q-72.209 0-135.432-27.523-63.223-27.523-110.62-74.848-47.398-47.325-74.824-110.262Q132-407.57 132-479.698q0-72.209 27.523-135.932 27.523-63.723 74.848-110.87 47.325-47.148 110.262-74.324Q407.57-828 479.698-828q72.209 0 135.937 27.391 63.729 27.392 110.871 74.348 47.142 46.957 74.318 110.394Q828-552.43 828-480.302q0 72.209-27.273 135.432-27.273 63.223-74.348 110.62-47.075 47.398-110.512 74.824Q552.43-132 480.302-132Z"/></svg>