<svg xmlns="http://www.w3.org/2000/svg" height="48" viewBox="0 -960 960 960" width="48"><path d="m562.5-298.5-49.5-48q-2.7-2.077-7.6-2.538-4.9-.462-8.4 3.196-3.5 3.658-3.5 8 0 4.342 4.087 7.842l45.913 45.5q7.682 8.5 18.682 8.5 11 0 19.318-8.5l131-131.5q1-3.11 2-7.841 1-4.73-2.5-8.333-3.5-3.326-8-3.326t-7.905 3.405L562.5-298.5ZM322.359-386h36.579q5.326 0 8.944-3.285 3.618-3.285 3.618-9.145 0-5.859-3.562-9.465-3.563-3.605-8.438-3.605h-37.325q-6.625 0-9.65 3.64-3.025 3.641-3.025 9.5 0 5.86 3.275 9.11 3.275 3.25 9.584 3.25ZM320-509.5h200q5.175 0 8.338-2.728 3.162-2.728 3.162-8t-3.162-8.272q-3.163-3-8.338-3H320q-5.175 0-7.838 3.228-2.662 3.228-2.662 8.5t2.662 7.772q2.663 2.5 7.838 2.5Zm0-120h200q5.175 0 8.338-2.728 3.162-2.728 3.162-8t-3.162-8.272q-3.163-3-8.338-3H320q-5.175 0-7.838 3.228-2.662 3.228-2.662 8.5t2.662 7.772q2.663 2.5 7.838 2.5ZM480.568-132q-73.036 0-136.079-27.51-63.043-27.509-110.34-74.848-47.297-47.338-74.723-110.028Q132-407.077 132-479.698q0-72.621 27.51-136.026 27.509-63.405 74.848-110.664 47.338-47.26 110.028-74.436Q407.077-828 479.698-828q72.621 0 136.032 27.378 63.41 27.378 110.664 74.348 47.254 46.97 74.43 110.32Q828-552.604 828-480.568q0 73.036-27.26 136.079-27.259 63.043-74.348 110.156-47.088 47.113-110.438 74.723T480.568-132Z"/></svg>